<svg id="Слой_1" data-name="Слой 1" xmlns="http://www.w3.org/2000/svg" viewBox="0 0 150 190"><defs><style>.cls-1{fill-rule:evenodd;}</style></defs><title>Монтажная область 1</title><path class="cls-1" d="M125.55,99c-6.43.9-7.43-8.31-1.39-9.15S131.43,98.13,125.55,99ZM47.2,114.18c-5.12,8,1.14,19.14,25.4,19.14l-2,3.69c-55.34,0-30.86-36.38-24.29-36.91-7.86-1.17-21.55,9.32-21.67,22.71l-4-.79c-1.13-35.27,50.29-39.56,63.2-33.47.28-8.26-16.84-9.23-43.63-.91l-.64-3.74C88,58.7,106.93,90.58,95.41,100.42c8-1.18,20.37-15.37.13-24.21l4.18-1.62c32.7,12.39,5.7,44.06-27.87,43.6,7.85,3.25,28.66,4.36,44.61-13.29l1.57,3.43C90.28,143.36,48.42,125.84,47.2,114.18ZM90.6,71.94c-4.84.68-5.59-6.23-1-6.87S95,71.32,90.6,71.94ZM46.42,75C40,75.88,39,66.68,45,65.83S52.3,74.15,46.42,75ZM25,129c4.53-.64,5.47,6.26,1,6.88C21.23,136.59,20.48,129.67,25,129Zm10.46,7c6-.85,7.27,8.32,1.4,9.15C30.43,146.1,29.43,136.89,35.47,136.05ZM81,133.24c4.52-.63,5.46,6.26,1,6.88C77.19,140.8,76.44,133.88,81,133.24Z"/></svg>